# This file uses centimeters as units for non-parametric coordinates.

mtllib concrete_wall.mtl
g default
v -10.000000 -0.000000 5.000000
v 10.000000 -0.000000 5.000000
v -10.000000 8.000000 5.000000
v 10.000000 8.000000 5.000000
v -10.000000 8.000000 4.000000
v 10.000000 8.000000 4.000000
v -10.000000 -0.000000 4.000000
v 10.000000 -0.000000 4.000000
vt 0.450000 -0.000000
vt 0.550000 -0.000000
vt 0.450000 1.000056
vt 0.450000 -0.000056
vt 0.550000 -0.000056
vt 0.550000 1.000056
vt 0.550000 1.000056
vt 0.550000 -0.000056
vt 0.450000 -0.000056
vt 0.450000 1.000056
vt 0.550000 1.000000
vt 0.450000 1.000000
vt 0.550000 -0.000000
vt 0.450000 -0.000000
vt -0.500000 -0.000000
vt 1.500000 -0.000000
vt 1.500000 1.000000
vt -0.500000 1.000000
vt -0.500000 1.000000
vt 1.500000 1.000000
vt 1.500000 -0.000000
vt -0.500000 -0.000000
vt 0.450000 1.000000
vt 0.550000 1.000000
vn 0.000000 0.000000 1.000000
vn 0.000000 0.000000 1.000000
vn 0.000000 0.000000 1.000000
vn 0.000000 0.000000 1.000000
vn 0.000000 1.000000 0.000000
vn 0.000000 1.000000 0.000000
vn 0.000000 1.000000 0.000000
vn 0.000000 1.000000 0.000000
vn 0.000000 0.000000 -1.000000
vn 0.000000 0.000000 -1.000000
vn 0.000000 0.000000 -1.000000
vn 0.000000 0.000000 -1.000000
vn 0.000000 -1.000000 0.000000
vn 0.000000 -1.000000 0.000000
vn 0.000000 -1.000000 0.000000
vn 0.000000 -1.000000 0.000000
vn 1.000000 0.000000 0.000000
vn 1.000000 0.000000 0.000000
vn 1.000000 0.000000 0.000000
vn 1.000000 0.000000 0.000000
vn -1.000000 0.000000 0.000000
vn -1.000000 0.000000 0.000000
vn -1.000000 0.000000 0.000000
vn -1.000000 0.000000 0.000000
s off
g pCube1
usemtl pCube1SG3
f 1/15/1 2/16/2 4/17/3 3/18/4
f 3/3/5 4/4/6 6/5/7 5/6/8
f 5/19/9 6/20/10 8/21/11 7/22/12
f 7/7/13 8/8/14 2/9/15 1/10/16
f 2/1/17 8/2/18 6/11/19 4/12/20
f 7/13/21 1/14/22 3/23/23 5/24/24
